:version 1.10
:name ASF
:units
  mass 1
  length 1
  angle deg
:documentation
  ASF file generated by Kaydara
:root
  axis xyz
  order  tx ty tz rx ry rz
  position 0 0 0
  orientation 0 0 0
:bonedata
  begin
    id 1
    name SpineDummy
    direction 0.999998 -0.00179978 1.38929e-006
    length 3.60008
    axis 0 0 0 xyz
  end
  begin
    id 2
    name Spine
    direction 0.964365 0.262802 0.0305839
    length 8.13928
    axis 1.33928 -1.75354 15.2838 xyz
    dof rx ry rz
  end
  begin
    id 3
    name Spine1
    direction 0.811168 0.572065 0.12144
    length 7.14954
    axis 2.2224 -6.9761 35.2157 xyz
    dof rx ry rz
  end
  begin
    id 4
    name Neck
    direction 0 0 0
    length 0
    axis 2.2224 -6.9761 35.2157 xyz
    dof rx ry rz
  end
  begin
    id 5
    name HeadDummy
    direction 0.810939 0.572387 0.121455
    length 3.55534
    axis 2.2224 -6.9761 35.2157 xyz
  end
  begin
    id 6
    name Head
    direction 0.998226 -0.000232542 0.0595419
    length 7.35666
    axis -3.03688 -3.41352 -0.0133467 xyz
    dof rx ry rz
  end
  begin
    id 7
    name R_ClavicleDummy
    direction 0.531669 -0.194489 -0.824319
    length 2.49392
    axis 2.2224 -6.9761 35.2157 xyz
  end
  begin
    id 8
    name R_Clavicle
    direction -0.155119 0.0480802 -0.986725
    length 4.485
    axis -54.2764 80.6538 162.779 xyz
    dof rx ry rz
  end
  begin
    id 9
    name R_UpperArm
    direction -0.955567 0.200068 -0.216484
    length 10.1122
    axis -72.9943 12.5026 168.175 xyz
    dof rx ry rz
  end
  begin
    id 10
    name R_Forearm
    direction -0.61433 0.385743 0.688332
    length 9.39148
    axis -117.015 -43.4982 147.875 xyz
    dof rx ry rz
  end
  begin
    id 11
    name R_Hand
    direction -0.699429 0.0170333 0.714499
    length 3.66324
    axis -45.0303 -36.7097 175.478 xyz
    dof rx ry rz
  end
  begin
    id 12
    name L_ClavicleDummy
    direction 0.40287 -0.36502 0.839319
    length 2.49392
    axis 2.2224 -6.9761 35.2157 xyz
  end
  begin
    id 13
    name L_Clavicle
    direction -0.231271 -0.0726419 0.970174
    length 4.485
    axis 18.4357 -75.9711 -162.563 xyz
    dof rx ry rz
  end
  begin
    id 14
    name L_UpperArm
    direction -0.917494 0.144359 0.370629
    length 10.1122
    axis 56.0417 -21.7544 171.058 xyz
    dof rx ry rz
  end
  begin
    id 15
    name L_Forearm
    direction -0.496786 0.615074 -0.612281
    length 9.39148
    axis 89.8094 37.7546 128.927 xyz
    dof rx ry rz
  end
  begin
    id 16
    name L_Hand
    direction -0.409932 0.64962 -0.640274
    length 3.66324
    axis -0.424369 32.133 128.52 xyz
    dof rx ry rz
  end
  begin
    id 17
    name L_ThighDummy
    direction -1.84081e-006 1.87549e-006 1
    length 3.13049
    axis 0 0 0 xyz
  end
  begin
    id 18
    name L_Thigh
    direction -0.947739 0.307978 0.083308
    length 17.9961
    axis 173.219 -4.77873 161.998 xyz
    dof rx ry rz
  end
  begin
    id 19
    name L_Calf
    direction -0.728814 -0.684427 0.0197583
    length 13.3367
    axis 167.331 -1.13214 -136.799 xyz
    dof rx ry rz
  end
  begin
    id 20
    name L_Foot
    direction -0.9028 0.418719 0.0981191
    length 5.8674
    axis 163.436 11.5135 -155.37 xyz
    dof rx ry rz
  end
  begin
    id 21
    name L_Toe0
    direction -0.35341 0.886259 0.299411
    length 4.75286
    axis 169.316 -17.4222 111.74 xyz
    dof rx ry rz
  end
  begin
    id 22
    name R_ThighDummy
    direction 9.32778e-007 -8.82053e-007 -1
    length 3.13049
    axis 0 0 0 xyz
  end
  begin
    id 23
    name R_Thigh
    direction -0.925064 0.37528 -0.0585023
    length 17.9961
    axis -178.698 3.35385 157.919 xyz
    dof rx ry rz
  end
  begin
    id 24
    name R_Calf
    direction -0.68969 -0.718776 -0.0876886
    length 13.3367
    axis -160.504 5.03065 -133.817 xyz
    dof rx ry rz
  end
  begin
    id 25
    name R_Foot
    direction -0.857405 0.418858 -0.299022
    length 5.8674
    axis -161.328 4.38911 -154.413 xyz
    dof rx ry rz
  end
  begin
    id 26
    name R_Toe0
    direction -0.100745 0.952789 -0.286433
    length 4.75286
    axis 171.683 16.6445 96.0359 xyz
    dof rx ry rz
  end
:hierarchy
  begin
    root SpineDummy L_ThighDummy R_ThighDummy
    SpineDummy Spine
    Spine Spine1
    Spine1 Neck
    Neck HeadDummy R_ClavicleDummy L_ClavicleDummy
    HeadDummy Head
    R_ClavicleDummy R_Clavicle
    R_Clavicle R_UpperArm
    R_UpperArm R_Forearm
    R_Forearm R_Hand
    L_ClavicleDummy L_Clavicle
    L_Clavicle L_UpperArm
    L_UpperArm L_Forearm
    L_Forearm L_Hand
    L_ThighDummy L_Thigh
    L_Thigh L_Calf
    L_Calf L_Foot
    L_Foot L_Toe0
    R_ThighDummy R_Thigh
    R_Thigh R_Calf
    R_Calf R_Foot
    R_Foot R_Toe0
  end

:SAMPLES-PER-SECOND 30
:FULLY-SPECIFIED
:DEGREES
1
root  0.899245 33.5252 0.421905 -83.4899 -1.23553 89.162
Spine  -0.822391 -0.806276 -32.3586
Spine1  0.231414 7.18245 6.82201
Neck  3.97569e-016 0 -2.38542e-015
Head  4.21698 -5.44713 27.955
R_Clavicle  0.415785 -22.9505 3.14337
R_UpperArm  38.3567 -5.61885 35.2761
R_Forearm  1.63914 -42.7098 27.0694
R_Hand  -0.668524 10.4776 -17.0082
L_Clavicle  -0.504441 20.1242 1.83862
L_UpperArm  -16.8861 11.319 18.7731
L_Forearm  18.406 43.7472 43.4685
L_Hand  0.146863 1.95338 2.24259
L_Thigh  -9.62032 3.1817 -14.3745
L_Calf  -8.85919 -9.40623 38.1635
L_Foot  2.87072 10.8307 0.752516
L_Toe0  0.505156 0.034446 -6.1361
R_Thigh  4.42561 1.95019 -17.6616
R_Calf  10.2672 15.9474 41.6041
R_Foot  -0.753028 -3.05413 -0.926624
R_Toe0  -1.78853 -0.272788 -17.3235
2
root  0.899245 33.5267 0.430294 -83.4663 -1.25111 89.1661
Spine  -0.85123 -0.791203 -32.3586
Spine1  0.198572 7.13941 6.77071
Neck  3.97569e-016 0 -2.38542e-015
Head  4.26267 -5.45482 28.2281
R_Clavicle  0.416431 -22.9551 3.04519
R_UpperArm  38.4041 -5.766 35.3699
R_Forearm  1.50703 -42.5483 26.9712
R_Hand  -0.637196 10.5264 -16.8123
L_Clavicle  -0.505445 19.9679 1.7565
L_UpperArm  -16.8813 11.458 18.8143
L_Forearm  18.337 43.6958 43.4318
L_Hand  0.14639 2.05676 2.13517
L_Thigh  -9.5862 3.17214 -14.3706
L_Calf  -8.8786 -9.38567 38.1703
L_Foot  2.86512 10.8322 0.732687
L_Toe0  0.505156 0.034446 -6.1361
R_Thigh  4.37474 1.96034 -17.678
R_Calf  10.301 15.9511 41.6308
R_Foot  -0.750032 -3.05832 -0.950855
R_Toe0  -1.78853 -0.272788 -17.3235
3
root  0.899245 33.5295 0.442535 -83.4961 -1.31643 89.1741
Spine  -0.855629 -0.783657 -32.3408
Spine1  0.190968 7.12371 6.73333
Neck  3.97569e-016 0 -2.38542e-015
Head  4.5266 -5.41696 28.5221
R_Clavicle  0.417802 -22.9061 2.8997
R_UpperArm  38.5004 -5.98341 35.4395
R_Forearm  1.21194 -42.4149 26.9438
R_Hand  -0.60762 10.6278 -16.6427
L_Clavicle  -0.50573 19.7573 1.66495
L_UpperArm  -16.9272 11.6167 18.8233
L_Forearm  18.4649 43.6681 43.4292
L_Hand  0.152712 2.2182 2.1696
L_Thigh  -9.56803 3.18892 -14.425
L_Calf  -8.91778 -9.39093 38.1951
L_Foot  2.85802 10.8395 0.703177
L_Toe0  0.505156 0.034446 -6.1361
R_Thigh  4.29338 1.98508 -17.7378
R_Calf  10.3605 15.958 41.6788
R_Foot  -0.743992 -3.06851 -0.999674
R_Toe0  -1.78853 -0.272788 -17.3235
4
root  0.899245 33.532 0.45426 -83.5696 -1.40757 89.174
Spine  -0.812605 -0.799755 -32.2588
Spine1  0.231529 7.17048 6.71842
Neck  3.97569e-016 0 -2.38542e-015
Head  4.99037 -5.32088 28.2103
R_Clavicle  0.418911 -22.8276 2.80421
R_UpperArm  38.5729 -6.0828 35.44
R_Forearm  0.901656 -42.5287 27.1216
R_Hand  -0.635674 10.6064 -16.8212
L_Clavicle  -0.505516 19.6345 1.61936
L_UpperArm  -16.9204 11.6469 18.7771
L_Forearm  18.6979 43.7799 43.5078
L_Hand  0.159403 2.20158 2.35714
L_Thigh  -9.55496 3.22007 -14.5243
L_Calf  -8.98217 -9.44116 38.2367
L_Foot  2.85514 10.8654 0.673144
L_Toe0  0.505156 0.034446 -6.1361
R_Thigh  4.26222 1.99142 -17.8088
R_Calf  10.3985 15.9622 41.7147
R_Foot  -0.73916 -3.0823 -1.05091
R_Toe0  -1.78853 -0.272788 -17.3235
5
root  0.899637 33.5327 0.466103 -83.6391 -1.48635 89.1573
Spine  -0.745468 -0.808481 -32.1192
Spine1  0.295129 7.20414 6.68416
Neck  3.97569e-016 0 -2.38542e-015
Head  5.33947 -5.10209 26.858
R_Clavicle  0.419386 -22.7623 2.78999
R_UpperArm  38.607 -6.05419 35.4101
R_Forearm  0.66485 -42.8231 27.4271
R_Hand  -0.69189 10.3877 -17.143
L_Clavicle  -0.507034 19.5651 1.54135
L_UpperArm  -16.9109 11.6208 18.7589
L_Forearm  18.926 44.0035 43.676
L_Hand  0.157805 2.07109 2.43834
L_Thigh  -9.51977 3.23232 -14.6154
L_Calf  -9.07037 -9.50531 38.2797
L_Foot  2.85359 10.8955 0.643024
L_Toe0  0.505156 0.034446 -6.1361
R_Thigh  4.28742 1.97205 -17.858
R_Calf  10.2913 15.9493 41.7178
R_Foot  -0.743548 -3.11259 -1.0769
R_Toe0  -1.78853 -0.272788 -17.3235
6
root  0.90225 33.5327 0.480824 -83.7038 -1.55314 89.1374
Spine  -0.683411 -0.765496 -31.9069
Spine1  0.349457 7.15388 6.59456
Neck  3.97569e-016 0 -2.38542e-015
Head  5.33097 -4.72045 24.5345
R_Clavicle  0.41933 -22.7376 2.8319
R_UpperArm  38.6232 -6.01 35.382
R_Forearm  0.499044 -43.0591 27.6596
R_Hand  -0.716414 10.1982 -17.2645
L_Clavicle  -0.510327 19.4752 1.39496
L_UpperArm  -17.0313 11.6562 18.8335
L_Forearm  19.1966 44.1846 43.8721
L_Hand  0.154446 2.05977 2.3564
L_Thigh  -9.5251 3.23697 -14.6726
L_Calf  -9.11893 -9.53707 38.2845
L_Foot  2.85209 10.9115 0.624207
L_Toe0  0.505156 0.034446 -6.1361
R_Thigh  4.31874 1.95869 -17.8825
R_Calf  10.066 15.9006 41.687
R_Foot  -0.75463 -3.1523 -1.07654
R_Toe0  -1.78853 -0.272788 -17.3235
7
root  0.908319 33.5322 0.502391 -83.7474 -1.61578 89.1302
Spine  -0.652499 -0.675389 -31.5452
Spine1  0.358541 7.03747 6.38108
Neck  3.97569e-016 0 -2.38542e-015
Head  5.02495 -4.32101 22.0043
R_Clavicle  0.418785 -22.7996 2.85799
R_UpperArm  38.6066 -5.99645 35.4308
R_Forearm  0.366355 -43.1208 27.7165
R_Hand  -0.706614 10.2446 -17.2165
L_Clavicle  -0.513179 19.3571 1.23795
L_UpperArm  -17.1899 11.7682 18.9994
L_Forearm  19.3879 44.2292 43.9815
L_Hand  0.151737 2.07407 2.26796
L_Thigh  -9.60878 3.25119 -14.6811
L_Calf  -9.07428 -9.51269 38.2323
L_Foot  2.85104 10.9134 0.61677
L_Toe0  0.505156 0.034446 -6.1361
R_Thigh  4.34743 1.96147 -17.877
R_Calf  9.93481 15.8534 41.6308
R_Foot  -0.758939 -3.17018 -1.0814
R_Toe0  -1.78853 -0.272788 -17.3235
8
root  0.914755 33.5318 0.532182 -83.6913 -1.63607 89.1254
Spine  -0.676188 -0.598337 -31.0463
Spine1  0.290869 6.91338 5.97936
Neck  3.97569e-016 0 -2.38542e-015
Head  4.63022 -4.12636 20.4923
R_Clavicle  0.418414 -22.9456 2.76947
R_UpperArm  38.5629 -5.99623 35.6395
R_Forearm  0.163149 -43.1391 27.7364
R_Hand  -0.69187 10.3433 -17.1673
L_Clavicle  -0.515259 19.2181 1.08182
L_UpperArm  -17.1889 11.9322 19.2494
L_Forearm  19.3149 44.2139 43.9824
L_Hand  0.142778 1.84575 2.22532
L_Thigh  -9.66585 3.23904 -14.6047
L_Calf  -8.97569 -9.44402 38.1617
L_Foot  2.84497 10.9167 0.594003
L_Toe0  0.505156 0.034446 -6.1361
R_Thigh  4.40986 1.95265 -17.8158
R_Calf  9.95999 15.8437 41.568
R_Foot  -0.755266 -3.16926 -1.10263
R_Toe0  -1.78853 -0.272788 -17.3235
9
root  0.919352 33.5319 0.56451 -83.5138 -1.57998 89.1098
Spine  -0.750053 -0.567717 -30.6028
Spine1  0.160792 6.80556 5.45227
Neck  3.97569e-016 0 -2.38542e-015
Head  4.32486 -4.21142 20.7581
R_Clavicle  0.419696 -23.0407 2.53757
R_UpperArm  38.6003 -6.06078 35.9222
R_Forearm  -0.2688 -43.3091 27.9705
R_Hand  -0.685572 10.1911 -17.0697
L_Clavicle  -0.517271 19.0549 0.895304
L_UpperArm  -17.1165 12.1178 19.5484
L_Forearm  19.3083 44.3126 44.0518
L_Hand  0.133261 1.53139 2.21383
L_Thigh  -9.61098 3.17644 -14.4391
L_Calf  -8.87869 -9.3637 38.1173
L_Foot  2.83238 10.9305 0.543048
L_Toe0  0.505156 0.034446 -6.1361
R_Thigh  4.49377 1.92874 -17.7023
R_Calf  10.012 15.865 41.5218
R_Foot  -0.753107 -3.18451 -1.11576
R_Toe0  -1.78853 -0.272788 -17.3235
10
root  0.924703 33.533 0.589446 -83.3473 -1.50714 89.0998
Spine  -0.818151 -0.536778 -30.3695
Spine1  0.0459734 6.71422 4.96871
Neck  3.97569e-016 0 -2.38542e-015
Head  4.24891 -4.49675 22.3229
R_Clavicle  0.421529 -22.9505 2.31806
R_UpperArm  38.8149 -6.22726 36.0352
R_Forearm  -0.936093 -43.6662 28.5084
R_Hand  -0.679486 9.87243 -16.902
L_Clavicle  -0.518184 18.9235 0.756189
L_UpperArm  -17.3029 12.2226 19.752
L_Forearm  20.0407 44.6585 44.4398
L_Hand  0.140672 1.53332 2.33091
L_Thigh  -9.52894 3.12685 -14.2867
L_Calf  -8.79987 -9.31381 38.1075
L_Foot  2.82056 10.9494 0.487647
L_Toe0  0.505156 0.034446 -6.1361
R_Thigh  4.5209 1.92656 -17.6079
R_Calf  10.1158 15.9034 41.5143
R_Foot  -0.751417 -3.20647 -1.12747
R_Toe0  -1.78853 -0.272788 -17.3235
11
root  0.932592 33.5363 0.602268 -83.3408 -1.52209 89.1067
Spine  -0.809871 -0.455256 -30.2799
Spine1  0.0315088 6.65422 4.66663
Neck  3.97569e-016 0 -2.38542e-015
Head  4.45547 -4.86992 23.8034
R_Clavicle  0.421598 -22.7541 2.3643
R_UpperArm  39.0912 -6.32715 35.8726
R_Forearm  -1.51892 -44.052 29.1123
R_Hand  -0.677709 9.75117 -16.8375
L_Clavicle  -0.517013 18.9066 0.78619
L_UpperArm  -17.8505 12.1543 19.7112
L_Forearm  21.5008 45.1887 45.1829
L_Hand  0.161154 1.76207 2.58023
L_Thigh  -9.47911 3.14892 -14.2914
L_Calf  -8.8273 -9.34157 38.1532
L_Foot  2.80973 10.9669 0.436744
L_Toe0  0.505156 0.034446 -6.1361
R_Thigh  4.43735 1.95825 -17.6146
R_Calf  10.364 15.9467 41.5638
R_Foot  -0.74588 -3.20049 -1.18466
R_Toe0  -1.78853 -0.272788 -17.3235
12
root  0.939716 33.5424 0.608672 -83.4666 -1.62812 89.1031
Spine  -0.716036 -0.353724 -30.2357
Spine1  0.133188 6.63788 4.64175
Neck  3.97569e-016 0 -2.38542e-015
Head  4.76231 -5.18116 24.0703
R_Clavicle  0.420201 -22.6826 2.71855
R_UpperArm  39.1402 -6.11661 35.6399
R_Forearm  -1.51869 -44.2192 29.3132
R_Hand  -0.682418 9.94203 -16.9453
L_Clavicle  -0.515224 19.016 0.939604
L_UpperArm  -18.4655 11.9559 19.4961
L_Forearm  22.7029 45.597 45.9175
L_Hand  0.171083 1.77338 2.73969
L_Thigh  -9.35375 3.18838 -14.456
L_Calf  -9.06986 -9.45302 38.2813
L_Foot  2.79244 10.9836 0.365504
L_Toe0  0.505156 0.034446 -6.1361
R_Thigh  4.28515 1.99248 -17.7141
R_Calf  10.5268 15.9525 41.6547
R_Foot  -0.739327 -3.19951 -1.27694
R_Toe0  -1.78853 -0.272788 -17.3235
13
root  0.943839 33.5476 0.619534 -83.5566 -1.72656 89.0742
Spine  -0.606533 -0.284492 -30.2656
Spine1  0.280393 6.6494 4.92757
Neck  3.97569e-016 0 -2.38542e-015
Head  4.87702 -5.25929 23.2022
R_Clavicle  0.417546 -22.8138 3.057
R_UpperArm  38.8255 -5.66516 35.6389
R_Forearm  -0.717583 -43.9724 28.8019
R_Hand  -0.694454 10.227 -17.1298
L_Clavicle  -0.51605 19.2232 1.0585
L_UpperArm  -18.7788 11.7035 19.3632
L_Forearm  22.746 45.5908 46.1047
L_Hand  0.163556 1.58098 2.68286
L_Thigh  -9.14228 3.17763 -14.6006
L_Calf  -9.36974 -9.55687 38.4065
L_Foot  2.7719 10.9972 0.287128
L_Toe0  0.505156 0.034446 -6.1361
R_Thigh  4.18668 2.00809 -17.8046
R_Calf  10.3893 15.9084 41.7161
R_Foot  -0.745156 -3.24858 -1.32763
R_Toe0  -1.78853 -0.272788 -17.3235
14
root  0.948061 33.5474 0.640739 -83.5071 -1.75831 89.0557
Spine  -0.552731 -0.247267 -30.3444
Spine1  0.377601 6.67896 5.32368
Neck  3.97569e-016 0 -2.38542e-015
Head  4.75908 -5.13598 22.2611
R_Clavicle  0.417105 -22.908 3.00536
R_UpperArm  38.422 -5.43759 35.9151
R_Forearm  0.441816 -43.3505 27.8545
R_Hand  -0.720967 10.4186 -17.3585
L_Clavicle  -0.519855 19.4944 1.1083
L_UpperArm  -18.5808 11.4333 19.4537
L_Forearm  21.7152 45.1856 45.5776
L_Hand  0.154573 1.57033 2.54254
L_Thigh  -9.05484 3.15368 -14.5742
L_Calf  -9.39437 -9.54745 38.386
L_Foot  2.76507 11.0047 0.25601
L_Toe0  0.505156 0.034446 -6.1361
R_Thigh  4.2462 2.00231 -17.8011
R_Calf  10.2724 15.8945 41.6866
R_Foot  -0.757994 -3.29222 -1.32196
R_Toe0  -1.78853 -0.272788 -17.3235
